<svg width="96" height="96" viewBox="0 0 96 96" fill="none" xmlns="http://www.w3.org/2000/svg">
  <rect width="96" height="96" rx="8" fill="#F3F4F6"/>
  <path d="M48 32C42.4772 32 38 36.4772 38 42C38 47.5228 42.4772 52 48 52C53.5228 52 58 47.5228 58 42C58 36.4772 53.5228 32 48 32ZM48 50C43.5817 50 40 46.4183 40 42C40 37.5817 43.5817 34 48 34C52.4183 34 56 37.5817 56 42C56 46.4183 52.4183 50 48 50Z" fill="#9CA3AF"/>
  <path d="M48 36C45.7909 36 44 37.7909 44 40C44 42.2091 45.7909 44 48 44C50.2091 44 52 42.2091 52 40C52 37.7909 50.2091 36 48 36ZM48 42C46.8954 42 46 41.1046 46 40C46 38.8954 46.8954 38 48 38C49.1046 38 50 38.8954 50 40C50 41.1046 49.1046 42 48 42Z" fill="#9CA3AF"/>
  <path d="M64 60C64 56.6863 61.3137 54 58 54H38C34.6863 54 32 56.6863 32 60V64H64V60ZM58 56C59.1046 56 60 56.8954 60 58V62H36V58C36 56.8954 36.8954 56 38 56H58Z" fill="#9CA3AF"/>
</svg>